<svg xmlns="http://www.w3.org/2000/svg" viewBox="0 0 800 600">
  <defs>
    <linearGradient id="bg" x1="0" y1="0" x2="0" y2="1"><stop offset="0%" stop-color="#1E1B4B"/><stop offset="100%" stop-color="#312E81"/></linearGradient>
    <linearGradient id="top" x1="0" y1="0" x2="1" y2="0"><stop offset="0%" stop-color="#881337"/><stop offset="100%" stop-color="#E11D48"/></linearGradient>
    <linearGradient id="counter" x1="0" y1="0" x2="0" y2="1"><stop offset="0%" stop-color="#3730A3"/><stop offset="100%" stop-color="#1E1B4B"/></linearGradient>
    <radialGradient id="lamp" cx="50%" cy="0%" r="70%"><stop offset="0%" stop-color="#FEF9C3" stop-opacity="0.25"/><stop offset="100%" stop-color="#FEF9C3" stop-opacity="0"/></radialGradient>
  </defs>
  <rect width="800" height="600" fill="url(#bg)"/>
  <!-- Lamp glow from above -->
  <rect width="800" height="600" fill="url(#lamp)"/>
  <rect width="800" height="72" fill="url(#top)"/>
  <text x="32" y="46" font-family="system-ui,-apple-system,sans-serif" font-size="22" font-weight="700" fill="#FFFFFF">🪳 Kitchen Infestation · פלישה במטבח</text>
  <!-- Kitchen tiles (dark wall) -->
  <g stroke="#4338CA" stroke-width="1" fill="none" opacity="0.35">
    <rect x="0" y="72" width="133" height="90"/><rect x="133" y="72" width="133" height="90"/><rect x="266" y="72" width="134" height="90"/><rect x="400" y="72" width="134" height="90"/><rect x="534" y="72" width="133" height="90"/><rect x="667" y="72" width="133" height="90"/>
    <rect x="0" y="162" width="133" height="90"/><rect x="133" y="162" width="133" height="90"/><rect x="266" y="162" width="134" height="90"/><rect x="400" y="162" width="134" height="90"/><rect x="534" y="162" width="133" height="90"/><rect x="667" y="162" width="133" height="90"/>
    <rect x="0" y="252" width="133" height="90"/><rect x="133" y="252" width="133" height="90"/><rect x="266" y="252" width="134" height="90"/><rect x="400" y="252" width="134" height="90"/><rect x="534" y="252" width="133" height="90"/><rect x="667" y="252" width="133" height="90"/>
    <rect x="0" y="342" width="133" height="70"/><rect x="133" y="342" width="133" height="70"/><rect x="266" y="342" width="134" height="70"/><rect x="400" y="342" width="134" height="70"/><rect x="534" y="342" width="133" height="70"/><rect x="667" y="342" width="133" height="70"/>
  </g>
  <!-- Counter -->
  <rect x="0" y="405" width="800" height="105" fill="url(#counter)"/>
  <rect x="0" y="400" width="800" height="10" fill="#6366F1" opacity="0.8"/>
  <!-- Cabinet under counter -->
  <rect x="30" y="420" width="180" height="85" rx="5" fill="#3730A3" stroke="#4338CA" stroke-width="1.5"/>
  <rect x="220" y="420" width="180" height="85" rx="5" fill="#3730A3" stroke="#4338CA" stroke-width="1.5"/>
  <rect x="410" y="420" width="180" height="85" rx="5" fill="#3730A3" stroke="#4338CA" stroke-width="1.5"/>
  <rect x="600" y="420" width="168" height="85" rx="5" fill="#3730A3" stroke="#4338CA" stroke-width="1.5"/>
  <!-- Cabinet handles -->
  <ellipse cx="120" cy="462" rx="18" ry="6" fill="none" stroke="#6366F1" stroke-width="2.5"/>
  <ellipse cx="310" cy="462" rx="18" ry="6" fill="none" stroke="#6366F1" stroke-width="2.5"/>
  <ellipse cx="500" cy="462" rx="18" ry="6" fill="none" stroke="#6366F1" stroke-width="2.5"/>
  <ellipse cx="684" cy="462" rx="18" ry="6" fill="none" stroke="#6366F1" stroke-width="2.5"/>
  <!-- Cockroach 1 (large, on counter) -->
  <g transform="translate(330,388)" fill="#CA8A04">
    <ellipse cx="0" cy="-48" rx="26" ry="18" fill="#A16207"/>
    <ellipse cx="-8" cy="-48" rx="6" ry="15" fill="#1C1917" opacity="0.85"/>
    <ellipse cx="8" cy="-48" rx="6" ry="15" fill="#1C1917" opacity="0.85"/>
    <ellipse cx="0" cy="0" rx="28" ry="50" fill="#CA8A04"/>
    <ellipse cx="-18" cy="0" rx="14" ry="44" fill="#A16207" opacity="0.5" transform="rotate(-6,-18,0)"/>
    <ellipse cx="18" cy="0" rx="14" ry="44" fill="#A16207" opacity="0.5" transform="rotate(6,18,0)"/>
    <line x1="4" y1="-22" x2="5" y2="22" stroke="#92400E" stroke-width="1" opacity="0.5"/>
    <line x1="-26" y1="-28" x2="-65" y2="-48" stroke="#78350F" stroke-width="3" stroke-linecap="round"/>
    <line x1="-27" y1="-4" x2="-68" y2="-4" stroke="#78350F" stroke-width="3" stroke-linecap="round"/>
    <line x1="-25" y1="24" x2="-62" y2="44" stroke="#78350F" stroke-width="3" stroke-linecap="round"/>
    <line x1="26" y1="-28" x2="65" y2="-48" stroke="#78350F" stroke-width="3" stroke-linecap="round"/>
    <line x1="27" y1="-4" x2="68" y2="-4" stroke="#78350F" stroke-width="3" stroke-linecap="round"/>
    <line x1="25" y1="24" x2="62" y2="44" stroke="#78350F" stroke-width="3" stroke-linecap="round"/>
    <path d="M-12,-64 Q-40,-105 -65,-135" fill="none" stroke="#78350F" stroke-width="2.5" stroke-linecap="round"/>
    <path d="M12,-64 Q40,-105 65,-135" fill="none" stroke="#78350F" stroke-width="2.5" stroke-linecap="round"/>
    <circle cx="-10" cy="-64" r="4" fill="#1C1917"/>
    <circle cx="10" cy="-64" r="4" fill="#1C1917"/>
  </g>
  <!-- Cockroach 2 (smaller, on wall) -->
  <g transform="translate(570,220) scale(0.58)" fill="#CA8A04">
    <ellipse cx="0" cy="-48" rx="26" ry="18" fill="#A16207"/>
    <ellipse cx="-8" cy="-48" rx="6" ry="15" fill="#1C1917" opacity="0.85"/>
    <ellipse cx="8" cy="-48" rx="6" ry="15" fill="#1C1917" opacity="0.85"/>
    <ellipse cx="0" cy="0" rx="28" ry="50" fill="#CA8A04"/>
    <line x1="-26" y1="-28" x2="-65" y2="-48" stroke="#78350F" stroke-width="3" stroke-linecap="round"/>
    <line x1="-27" y1="-4" x2="-68" y2="-4" stroke="#78350F" stroke-width="3" stroke-linecap="round"/>
    <line x1="26" y1="-28" x2="65" y2="-48" stroke="#78350F" stroke-width="3" stroke-linecap="round"/>
    <line x1="27" y1="-4" x2="68" y2="-4" stroke="#78350F" stroke-width="3" stroke-linecap="round"/>
    <path d="M-12,-64 Q-38,-95 -58,-125" fill="none" stroke="#78350F" stroke-width="2.5" stroke-linecap="round"/>
    <path d="M12,-64 Q38,-95 58,-125" fill="none" stroke="#78350F" stroke-width="2.5" stroke-linecap="round"/>
  </g>
  <!-- Red eyes glow on wall bug -->
  <circle cx="562" cy="158" r="3.5" fill="#F87171" opacity="0.9"/>
  <circle cx="578" cy="158" r="3.5" fill="#F87171" opacity="0.9"/>
  <!-- Red eyes on main bug -->
  <circle cx="322" cy="298" r="4" fill="#F87171" opacity="0.9"/>
  <circle cx="338" cy="298" r="4" fill="#F87171" opacity="0.9"/>
  <!-- Bottom label -->
  <rect y="510" width="800" height="90" fill="#881337"/>
  <text x="400" y="566" text-anchor="middle" font-family="system-ui,-apple-system,sans-serif" font-size="26" font-weight="700" fill="#FFFFFF">Cockroach Kitchen Infestation · פלישה במטבח</text>
</svg>
