<svg xmlns="http://www.w3.org/2000/svg" viewBox="0 0 800 600" width="800" height="600">
  <rect width="800" height="600" fill="#1a1a1a"/>
  <!-- kitchen counter at night -->
  <rect x="0" y="350" width="800" height="250" fill="#2a2010"/>
  <rect x="0" y="344" width="800" height="12" fill="#3a3020"/>
  <!-- countertop surface -->
  <rect x="0" y="344" width="800" height="8" fill="#888060" opacity="0.5"/>
  <!-- faucet hint -->
  <rect x="600" y="280" width="12" height="70" rx="4" fill="#888"/>
  <rect x="580" y="278" width="52" height="10" rx="4" fill="#aaa"/>
  <!-- kitchen tiles (backsplash) -->
  <g stroke="#333" stroke-width="1" fill="none">
    <rect x="0" y="0" width="100" height="80"/>
    <rect x="100" y="0" width="100" height="80"/>
    <rect x="200" y="0" width="100" height="80"/>
    <rect x="300" y="0" width="100" height="80"/>
    <rect x="400" y="0" width="100" height="80"/>
    <rect x="500" y="0" width="100" height="80"/>
    <rect x="600" y="0" width="100" height="80"/>
    <rect x="700" y="0" width="100" height="80"/>
    <rect x="0" y="80" width="100" height="80"/>
    <rect x="100" y="80" width="100" height="80"/>
    <rect x="200" y="80" width="100" height="80"/>
    <rect x="300" y="80" width="100" height="80"/>
    <rect x="400" y="80" width="100" height="80"/>
    <rect x="500" y="80" width="100" height="80"/>
    <rect x="600" y="80" width="100" height="80"/>
    <rect x="700" y="80" width="100" height="80"/>
    <rect x="0" y="160" width="100" height="80"/>
    <rect x="100" y="160" width="100" height="80"/>
    <rect x="200" y="160" width="100" height="80"/>
    <rect x="300" y="160" width="100" height="80"/>
    <rect x="400" y="160" width="100" height="80"/>
    <rect x="500" y="160" width="100" height="80"/>
    <rect x="600" y="160" width="100" height="80"/>
    <rect x="700" y="160" width="100" height="80"/>
    <rect x="0" y="240" width="100" height="80"/>
    <rect x="100" y="240" width="100" height="80"/>
    <rect x="200" y="240" width="100" height="80"/>
    <rect x="300" y="240" width="100" height="80"/>
    <rect x="400" y="240" width="100" height="80"/>
    <rect x="500" y="240" width="100" height="80"/>
    <rect x="600" y="240" width="100" height="80"/>
    <rect x="700" y="240" width="100" height="80"/>
  </g>
  <!-- cockroach 1 (large, on counter) -->
  <g transform="translate(320,370)">
    <ellipse cx="0" cy="-45" rx="24" ry="17" fill="#8b6914"/>
    <ellipse cx="-7" cy="-45" rx="5" ry="14" fill="#3a1e04" opacity="0.9"/>
    <ellipse cx="7" cy="-45" rx="5" ry="14" fill="#3a1e04" opacity="0.9"/>
    <ellipse cx="0" cy="0" rx="26" ry="48" fill="#8b6914"/>
    <ellipse cx="-16" cy="-2" rx="12" ry="42" fill="#7a5810" opacity="0.6" transform="rotate(-6,-16,-2)"/>
    <ellipse cx="16" cy="-2" rx="12" ry="42" fill="#7a5810" opacity="0.6" transform="rotate(6,16,-2)"/>
    <line x1="-24" y1="-25" x2="-58" y2="-44" stroke="#5a3808" stroke-width="2.5"/>
    <line x1="-58" y1="-44" x2="-72" y2="-26" stroke="#5a3808" stroke-width="2"/>
    <line x1="-25" y1="0" x2="-60" y2="0" stroke="#5a3808" stroke-width="2.5"/>
    <line x1="-24" y1="22" x2="-56" y2="40" stroke="#5a3808" stroke-width="2.5"/>
    <line x1="24" y1="-25" x2="58" y2="-44" stroke="#5a3808" stroke-width="2.5"/>
    <line x1="58" y1="-44" x2="72" y2="-26" stroke="#5a3808" stroke-width="2"/>
    <line x1="25" y1="0" x2="60" y2="0" stroke="#5a3808" stroke-width="2.5"/>
    <line x1="24" y1="22" x2="56" y2="40" stroke="#5a3808" stroke-width="2.5"/>
    <line x1="-12" y1="-58" x2="-50" y2="-108" stroke="#5a3808" stroke-width="2"/>
    <line x1="-50" y1="-108" x2="-78" y2="-140" stroke="#5a3808" stroke-width="1.5"/>
    <line x1="12" y1="-58" x2="50" y2="-108" stroke="#5a3808" stroke-width="2"/>
    <line x1="50" y1="-108" x2="78" y2="-140" stroke="#5a3808" stroke-width="1.5"/>
    <circle cx="-10" cy="-58" r="3.5" fill="#1a1a1a"/>
    <circle cx="10" cy="-58" r="3.5" fill="#1a1a1a"/>
  </g>
  <!-- cockroach 2 (smaller, on wall) -->
  <g transform="translate(560,220) scale(0.6)">
    <ellipse cx="0" cy="-45" rx="24" ry="17" fill="#8b6914"/>
    <ellipse cx="-7" cy="-45" rx="5" ry="14" fill="#3a1e04" opacity="0.9"/>
    <ellipse cx="7" cy="-45" rx="5" ry="14" fill="#3a1e04" opacity="0.9"/>
    <ellipse cx="0" cy="0" rx="26" ry="48" fill="#8b6914"/>
    <line x1="-24" y1="-25" x2="-58" y2="-44" stroke="#5a3808" stroke-width="2.5"/>
    <line x1="-25" y1="0" x2="-60" y2="0" stroke="#5a3808" stroke-width="2.5"/>
    <line x1="24" y1="-25" x2="58" y2="-44" stroke="#5a3808" stroke-width="2.5"/>
    <line x1="25" y1="0" x2="60" y2="0" stroke="#5a3808" stroke-width="2.5"/>
    <line x1="-12" y1="-58" x2="-50" y2="-108" stroke="#5a3808" stroke-width="2"/>
    <line x1="12" y1="-58" x2="50" y2="-108" stroke="#5a3808" stroke-width="2"/>
  </g>
  <!-- light switch glow (flashlight effect) -->
  <radialGradient id="light" cx="40%" cy="65%" r="35%">
    <stop offset="0%" stop-color="#fffde0" stop-opacity="0.3"/>
    <stop offset="100%" stop-color="#fffde0" stop-opacity="0"/>
  </radialGradient>
  <rect x="0" y="0" width="800" height="600" fill="url(#light)"/>
  <!-- label -->
  <rect x="0" y="540" width="800" height="60" fill="rgba(0,0,0,0.7)"/>
  <text x="400" y="578" text-anchor="middle" font-family="Arial, sans-serif" font-size="26" font-weight="bold" fill="#fff">Cockroach Infestation in the Kitchen</text>
</svg>
