<svg xmlns="http://www.w3.org/2000/svg" viewBox="0 0 800 600">
  <defs>
    <linearGradient id="bg" x1="0" y1="0" x2="0" y2="1"><stop offset="0%" stop-color="#FFF7ED"/><stop offset="100%" stop-color="#FFEDD5"/></linearGradient>
    <linearGradient id="top" x1="0" y1="0" x2="1" y2="0"><stop offset="0%" stop-color="#9F1239"/><stop offset="100%" stop-color="#F43F5E"/></linearGradient>
    <linearGradient id="soil" x1="0" y1="0" x2="0" y2="1"><stop offset="0%" stop-color="#92400E"/><stop offset="100%" stop-color="#78350F"/></linearGradient>
    <linearGradient id="mound" x1="0" y1="0" x2="0" y2="1"><stop offset="0%" stop-color="#B45309"/><stop offset="100%" stop-color="#92400E"/></linearGradient>
  </defs>
  <rect width="800" height="600" fill="url(#bg)"/>
  <pattern id="dots" width="28" height="28" patternUnits="userSpaceOnUse"><circle cx="1" cy="1" r="1.2" fill="#FED7AA" opacity="0.5"/></pattern>
  <rect width="800" height="600" fill="url(#dots)"/>
  <rect width="800" height="72" fill="url(#top)"/>
  <text x="32" y="46" font-family="system-ui,-apple-system,sans-serif" font-size="22" font-weight="700" fill="#FFFFFF">🔴 Fire Ant Colony · נמלת אש</text>
  <!-- Sky gradient -->
  <circle cx="400" cy="320" r="200" fill="#FECDD3" opacity="0.4"/>
  <!-- Ground -->
  <rect x="0" y="410" width="800" height="100" fill="url(#soil)"/>
  <!-- Grass tufts -->
  <g stroke="#22C55E" stroke-width="3.5" stroke-linecap="round" fill="none">
    <path d="M68,410 Q62,378 74,348"/><path d="M84,410 Q96,382 88,355"/>
    <path d="M108,410 Q100,370 116,342"/>
    <path d="M680,410 Q674,378 686,348"/><path d="M696,410 Q708,382 700,355"/>
    <path d="M720,410 Q712,370 728,342"/>
    <path d="M148,410 Q140,385 150,362"/>
    <path d="M648,410 Q638,386 652,362"/>
  </g>
  <!-- Fire ant mound -->
  <ellipse cx="400" cy="410" rx="240" ry="78" fill="url(#mound)"/>
  <ellipse cx="400" cy="408" rx="200" ry="60" fill="#CA8A04" opacity="0.6"/>
  <ellipse cx="400" cy="406" rx="155" ry="42" fill="#D97706" opacity="0.5"/>
  <!-- Mound entrance hole -->
  <ellipse cx="400" cy="394" rx="32" ry="16" fill="#78350F"/>
  <ellipse cx="400" cy="394" rx="24" ry="11" fill="#1C1917"/>
  <!-- FIRE ANT macro (center mound, large) -->
  <g transform="translate(400,300)" fill="#DC2626">
    <ellipse cx="0" cy="0" rx="15" ry="10"/>
    <ellipse cx="22" cy="-4" rx="12" ry="8"/>
    <ellipse cx="-18" cy="4" rx="13" ry="9"/>
    <line x1="-8" y1="6" x2="-28" y2="18" stroke="#991B1B" stroke-width="3.5" stroke-linecap="round"/>
    <line x1="0" y1="7" x2="-4" y2="20" stroke="#991B1B" stroke-width="3.5" stroke-linecap="round"/>
    <line x1="8" y1="6" x2="26" y2="16" stroke="#991B1B" stroke-width="3.5" stroke-linecap="round"/>
    <line x1="-8" y1="-5" x2="-28" y2="-16" stroke="#991B1B" stroke-width="3.5" stroke-linecap="round"/>
    <line x1="8" y1="-5" x2="26" y2="-14" stroke="#991B1B" stroke-width="3.5" stroke-linecap="round"/>
    <line x1="30" y1="-6" x2="52" y2="-24" stroke="#991B1B" stroke-width="2.5" stroke-linecap="round"/>
    <line x1="30" y1="-2" x2="54" y2="-4" stroke="#991B1B" stroke-width="2.5" stroke-linecap="round"/>
  </g>
  <!-- Ant 2 (mound left) -->
  <g transform="translate(268,358)" fill="#DC2626">
    <ellipse cx="0" cy="0" rx="12" ry="8"/>
    <ellipse cx="18" cy="-3" rx="10" ry="7"/>
    <ellipse cx="-14" cy="3" rx="11" ry="7"/>
    <line x1="-6" y1="5" x2="-22" y2="14" stroke="#991B1B" stroke-width="3" stroke-linecap="round"/>
    <line x1="6" y1="5" x2="20" y2="12" stroke="#991B1B" stroke-width="3" stroke-linecap="round"/>
    <line x1="-6" y1="-4" x2="-22" y2="-12" stroke="#991B1B" stroke-width="3" stroke-linecap="round"/>
    <line x1="6" y1="-4" x2="20" y2="-11" stroke="#991B1B" stroke-width="3" stroke-linecap="round"/>
    <line x1="24" y1="-5" x2="42" y2="-19" stroke="#991B1B" stroke-width="2.5" stroke-linecap="round"/>
  </g>
  <!-- Ant 3 (mound right) -->
  <g transform="translate(518,362)" fill="#DC2626">
    <ellipse cx="0" cy="0" rx="12" ry="8"/>
    <ellipse cx="18" cy="-3" rx="10" ry="7"/>
    <ellipse cx="-14" cy="3" rx="11" ry="7"/>
    <line x1="-6" y1="5" x2="-22" y2="14" stroke="#991B1B" stroke-width="3" stroke-linecap="round"/>
    <line x1="6" y1="5" x2="20" y2="12" stroke="#991B1B" stroke-width="3" stroke-linecap="round"/>
    <line x1="-6" y1="-4" x2="-22" y2="-12" stroke="#991B1B" stroke-width="3" stroke-linecap="round"/>
    <line x1="24" y1="-5" x2="42" y2="-19" stroke="#991B1B" stroke-width="2.5" stroke-linecap="round"/>
  </g>
  <!-- Ant 4 small far left -->
  <g transform="translate(178,368) scale(0.7)" fill="#EF4444">
    <ellipse cx="0" cy="0" rx="12" ry="8"/>
    <ellipse cx="18" cy="-3" rx="10" ry="7"/>
    <ellipse cx="-14" cy="3" rx="11" ry="7"/>
    <line x1="-6" y1="5" x2="-22" y2="14" stroke="#B91C1C" stroke-width="3" stroke-linecap="round"/>
    <line x1="6" y1="5" x2="20" y2="12" stroke="#B91C1C" stroke-width="3" stroke-linecap="round"/>
    <line x1="24" y1="-5" x2="42" y2="-19" stroke="#B91C1C" stroke-width="2.5" stroke-linecap="round"/>
  </g>
  <!-- Ant 5 small far right -->
  <g transform="translate(614,366) scale(0.7)" fill="#EF4444">
    <ellipse cx="0" cy="0" rx="12" ry="8"/>
    <ellipse cx="18" cy="-3" rx="10" ry="7"/>
    <ellipse cx="-14" cy="3" rx="11" ry="7"/>
    <line x1="-6" y1="5" x2="-22" y2="14" stroke="#B91C1C" stroke-width="3" stroke-linecap="round"/>
    <line x1="6" y1="5" x2="20" y2="12" stroke="#B91C1C" stroke-width="3" stroke-linecap="round"/>
    <line x1="24" y1="-5" x2="42" y2="-19" stroke="#B91C1C" stroke-width="2.5" stroke-linecap="round"/>
  </g>
  <!-- Warning badge -->
  <circle cx="676" cy="132" r="46" fill="#FFFFFF" opacity="0.88" stroke="#FCA5A5" stroke-width="2.5"/>
  <text x="676" y="125" text-anchor="middle" font-size="30" fill="#DC2626">⚠️</text>
  <text x="676" y="153" text-anchor="middle" font-family="system-ui,sans-serif" font-size="10.5" fill="#9F1239" font-weight="700">PAINFUL STING</text>
  <!-- Bottom label -->
  <rect y="510" width="800" height="90" fill="#7F1D1D"/>
  <text x="400" y="566" text-anchor="middle" font-family="system-ui,-apple-system,sans-serif" font-size="26" font-weight="700" fill="#FFFFFF">Fire Ant Colony · נמלת האש</text>
</svg>
