<svg xmlns="http://www.w3.org/2000/svg" viewBox="0 0 800 600">
  <defs>
    <linearGradient id="bg" x1="0" y1="0" x2="0" y2="1"><stop offset="0%" stop-color="#FEF3C7"/><stop offset="100%" stop-color="#FDE68A"/></linearGradient>
    <linearGradient id="top" x1="0" y1="0" x2="1" y2="0"><stop offset="0%" stop-color="#451A03"/><stop offset="100%" stop-color="#D97706"/></linearGradient>
    <linearGradient id="wood" x1="0" y1="0" x2="0" y2="1"><stop offset="0%" stop-color="#B45309"/><stop offset="100%" stop-color="#78350F"/></linearGradient>
    <linearGradient id="beam" x1="0" y1="0" x2="1" y2="0"><stop offset="0%" stop-color="#92400E"/><stop offset="100%" stop-color="#A16207"/></linearGradient>
    <linearGradient id="termite" x1="0" y1="0" x2="0" y2="1"><stop offset="0%" stop-color="#FDE68A"/><stop offset="100%" stop-color="#FCD34D"/></linearGradient>
  </defs>
  <rect width="800" height="600" fill="url(#bg)"/>
  <pattern id="dots" width="28" height="28" patternUnits="userSpaceOnUse"><circle cx="1" cy="1" r="1.2" fill="#FCD34D" opacity="0.5"/></pattern>
  <rect width="800" height="600" fill="url(#dots)"/>
  <rect width="800" height="72" fill="url(#top)"/>
  <text x="32" y="46" font-family="system-ui,-apple-system,sans-serif" font-size="22" font-weight="700" fill="#FFFFFF">🪵 Termite Wood Damage · נזקי טרמיטים</text>
  <!-- Glow -->
  <circle cx="400" cy="300" r="200" fill="#FDE68A" opacity="0.45"/>
  <!-- Wood beam (main, horizontal) -->
  <rect x="80" y="190" width="640" height="240" rx="10" fill="url(#wood)"/>
  <!-- Wood grain lines -->
  <g stroke="#78350F" stroke-width="1.5" opacity="0.4">
    <line x1="80" y1="230" x2="720" y2="230"/>
    <line x1="80" y1="265" x2="720" y2="265"/>
    <line x1="80" y1="300" x2="720" y2="300"/>
    <line x1="80" y1="335" x2="720" y2="335"/>
    <line x1="80" y1="370" x2="720" y2="370"/>
  </g>
  <!-- Annual ring arcs on left end -->
  <g fill="none" stroke="#92400E" stroke-width="1.5" opacity="0.35">
    <ellipse cx="80" cy="310" rx="18" ry="115"/>
    <ellipse cx="80" cy="310" rx="30" ry="100"/>
    <ellipse cx="80" cy="310" rx="42" ry="85"/>
    <ellipse cx="80" cy="310" rx="54" ry="68"/>
  </g>
  <!-- Termite tunnel damage channels (darker carved-out look) -->
  <path d="M160,230 Q200,245 240,225 Q285,210 330,240 Q375,265 420,248 Q465,232 510,255 Q555,278 600,260 Q645,242 690,265" stroke="#451A03" stroke-width="28" fill="none" stroke-linecap="round" opacity="0.9"/>
  <path d="M130,295 Q175,312 225,292 Q275,274 330,298 Q378,318 430,298 Q480,278 540,305 Q590,326 650,305" stroke="#451A03" stroke-width="22" fill="none" stroke-linecap="round" opacity="0.85"/>
  <path d="M200,368 Q250,350 310,370 Q365,388 415,365 Q465,342 520,365 Q570,386 630,368" stroke="#451A03" stroke-width="18" fill="none" stroke-linecap="round" opacity="0.75"/>
  <!-- Mud tube accent lines (lighter) -->
  <path d="M160,230 Q200,245 240,225 Q285,210 330,240 Q375,265 420,248 Q465,232 510,255 Q555,278 600,260 Q645,242 690,265" stroke="#6B3A07" stroke-width="30" fill="none" stroke-linecap="round" opacity="0.25"/>
  <!-- Sawdust pile -->
  <ellipse cx="400" cy="444" rx="180" ry="22" fill="#FDE68A" opacity="0.8"/>
  <ellipse cx="320" cy="440" rx="80" ry="14" fill="#FDE68A" opacity="0.6"/>
  <ellipse cx="500" cy="442" rx="70" ry="12" fill="#FDE68A" opacity="0.6"/>
  <!-- TERMITE workers (in tunnel) -->
  <g transform="translate(310,248)" fill="url(#termite)">
    <ellipse cx="0" cy="0" rx="9" ry="5"/>
    <ellipse cx="13" cy="-2" rx="7" ry="4"/>
    <ellipse cx="-11" cy="2" rx="8" ry="5"/>
    <line x1="-4" y1="3" x2="-14" y2="9" stroke="#A16207" stroke-width="2" stroke-linecap="round"/>
    <line x1="3" y1="3" x2="12" y2="8" stroke="#A16207" stroke-width="2" stroke-linecap="round"/>
    <line x1="-4" y1="-3" x2="-14" y2="-8" stroke="#A16207" stroke-width="2" stroke-linecap="round"/>
    <line x1="3" y1="-3" x2="12" y2="-7" stroke="#A16207" stroke-width="2" stroke-linecap="round"/>
    <line x1="18" y1="-3" x2="30" y2="-12" stroke="#A16207" stroke-width="2" stroke-linecap="round"/>
    <line x1="18" y1="-1" x2="32" y2="-2" stroke="#A16207" stroke-width="2" stroke-linecap="round"/>
  </g>
  <g transform="translate(480,296)" fill="url(#termite)">
    <ellipse cx="0" cy="0" rx="9" ry="5"/>
    <ellipse cx="13" cy="-2" rx="7" ry="4"/>
    <ellipse cx="-11" cy="2" rx="8" ry="5"/>
    <line x1="-4" y1="3" x2="-14" y2="9" stroke="#A16207" stroke-width="2" stroke-linecap="round"/>
    <line x1="3" y1="3" x2="12" y2="8" stroke="#A16207" stroke-width="2" stroke-linecap="round"/>
    <line x1="-4" y1="-3" x2="-14" y2="-8" stroke="#A16207" stroke-width="2" stroke-linecap="round"/>
    <line x1="18" y1="-3" x2="30" y2="-12" stroke="#A16207" stroke-width="2" stroke-linecap="round"/>
  </g>
  <!-- Warning badge -->
  <rect x="588" y="86" width="172" height="62" rx="12" fill="#FFFFFF" opacity="0.85" stroke="#FCD34D" stroke-width="2"/>
  <text x="674" y="112" text-anchor="middle" font-family="system-ui,sans-serif" font-size="11" fill="#451A03" font-weight="700">⚠ STRUCTURAL DAMAGE</text>
  <text x="674" y="134" text-anchor="middle" font-family="system-ui,sans-serif" font-size="10" fill="#78350F">Silent destroyer</text>
  <!-- Bottom label -->
  <rect y="510" width="800" height="90" fill="#451A03"/>
  <text x="400" y="566" text-anchor="middle" font-family="system-ui,-apple-system,sans-serif" font-size="26" font-weight="700" fill="#FFFFFF">Termite Wood Damage · נזקי טרמיטים</text>
</svg>
