<svg width="800" height="800" viewBox="0 0 800 800" fill="none" xmlns="http://www.w3.org/2000/svg">
  <rect width="800" height="800" rx="64" fill="#F8FAFC"/>
  <rect x="140" y="160" width="520" height="520" rx="44" fill="#0B3B2E"/>
  <path d="M400 254C473.812 254 534 313.977 534 387.5C534 476.19 434.615 548.744 406.334 567.607C402.505 570.159 397.495 570.159 393.666 567.607C365.385 548.744 266 476.19 266 387.5C266 313.977 326.188 254 400 254Z" fill="#22C55E"/>
  <path d="M400 314V512" stroke="#052E16" stroke-width="20" stroke-linecap="round"/>
  <path d="M400 390C437.003 390 467 360.003 467 323" stroke="#052E16" stroke-width="20" stroke-linecap="round"/>
  <path d="M400 450C362.997 450 333 480.997 333 518" stroke="#052E16" stroke-width="20" stroke-linecap="round"/>
</svg>
